<svg width="168" height="53" viewBox="0 0 168 53" fill="none" xmlns="http://www.w3.org/2000/svg">
<g filter="url(#filter0_d_2_23)">
<rect x="4" width="160" height="45" rx="11" fill="#174153"/>
</g>
<path d="M74.791 21.6504V23.7598H67.3105V21.6504H74.791ZM68.043 15.7812V30H65.3574V15.7812H68.043ZM76.7832 15.7812V30H74.0977V15.7812H76.7832ZM82.0566 19.4336V30H79.4688V19.4336H82.0566ZM79.293 16.6699C79.293 16.2858 79.4232 15.9668 79.6836 15.7129C79.9505 15.459 80.3086 15.332 80.7578 15.332C81.207 15.332 81.5618 15.459 81.8223 15.7129C82.0892 15.9668 82.2227 16.2858 82.2227 16.6699C82.2227 17.0475 82.0892 17.3633 81.8223 17.6172C81.5618 17.8711 81.207 17.998 80.7578 17.998C80.3086 17.998 79.9505 17.8711 79.6836 17.6172C79.4232 17.3633 79.293 17.0475 79.293 16.6699ZM87.0957 21.5918V30H84.5176V19.4336H86.959L87.0957 21.5918ZM90.3086 19.3652L90.2695 21.7676C90.1263 21.7415 89.9635 21.722 89.7812 21.709C89.6055 21.696 89.4395 21.6895 89.2832 21.6895C88.8861 21.6895 88.5378 21.7448 88.2383 21.8555C87.9388 21.9596 87.6882 22.1126 87.4863 22.3145C87.291 22.5163 87.1413 22.7637 87.0371 23.0566C86.9329 23.3431 86.8743 23.6686 86.8613 24.0332L86.3047 23.9648C86.3047 23.2943 86.373 22.6725 86.5098 22.0996C86.6465 21.5267 86.8451 21.0254 87.1055 20.5957C87.3659 20.166 87.6914 19.834 88.082 19.5996C88.4792 19.3587 88.9349 19.2383 89.4492 19.2383C89.5924 19.2383 89.7454 19.2513 89.9082 19.2773C90.0775 19.2969 90.2109 19.3262 90.3086 19.3652ZM96.2754 30.1953C95.4746 30.1953 94.7552 30.0651 94.1172 29.8047C93.4792 29.5443 92.9355 29.1829 92.4863 28.7207C92.0436 28.252 91.7018 27.7083 91.4609 27.0898C91.2266 26.4648 91.1094 25.7943 91.1094 25.0781V24.6875C91.1094 23.8737 91.2266 23.1348 91.4609 22.4707C91.6953 21.8001 92.0273 21.224 92.457 20.7422C92.8867 20.2604 93.401 19.8893 94 19.6289C94.599 19.3685 95.2598 19.2383 95.9824 19.2383C96.7311 19.2383 97.3919 19.3652 97.9648 19.6191C98.5378 19.8665 99.0163 20.2181 99.4004 20.6738C99.7845 21.1296 100.074 21.6764 100.27 22.3145C100.465 22.946 100.562 23.6458 100.562 24.4141V25.498H92.2812V23.7207H98.0234V23.5254C98.0104 23.1152 97.9323 22.7409 97.7891 22.4023C97.6458 22.0573 97.4245 21.7839 97.125 21.582C96.8255 21.3737 96.4382 21.2695 95.9629 21.2695C95.5788 21.2695 95.2435 21.3542 94.957 21.5234C94.6771 21.6862 94.4427 21.9206 94.2539 22.2266C94.0716 22.526 93.9349 22.8841 93.8438 23.3008C93.7526 23.7174 93.707 24.1797 93.707 24.6875V25.0781C93.707 25.5208 93.7656 25.931 93.8828 26.3086C94.0065 26.6862 94.1855 27.015 94.4199 27.2949C94.6608 27.5684 94.9473 27.7832 95.2793 27.9395C95.6178 28.0892 96.002 28.1641 96.4316 28.1641C96.972 28.1641 97.4603 28.0599 97.8965 27.8516C98.3392 27.6367 98.7233 27.321 99.0488 26.9043L100.348 28.252C100.126 28.5775 99.8268 28.89 99.4492 29.1895C99.0781 29.4889 98.6289 29.7331 98.1016 29.9219C97.5742 30.1042 96.9655 30.1953 96.2754 30.1953ZM108.639 15.7812H110.963L114.85 26.4844L118.727 15.7812H121.061L115.777 30H113.912L108.639 15.7812ZM107.467 15.7812H109.742L110.152 25.6152V30H107.467V15.7812ZM119.947 15.7812H122.232V30H119.547V25.6152L119.947 15.7812ZM129.518 30.1953C128.717 30.1953 127.997 30.0651 127.359 29.8047C126.721 29.5443 126.178 29.1829 125.729 28.7207C125.286 28.252 124.944 27.7083 124.703 27.0898C124.469 26.4648 124.352 25.7943 124.352 25.0781V24.6875C124.352 23.8737 124.469 23.1348 124.703 22.4707C124.938 21.8001 125.27 21.224 125.699 20.7422C126.129 20.2604 126.643 19.8893 127.242 19.6289C127.841 19.3685 128.502 19.2383 129.225 19.2383C129.973 19.2383 130.634 19.3652 131.207 19.6191C131.78 19.8665 132.258 20.2181 132.643 20.6738C133.027 21.1296 133.316 21.6764 133.512 22.3145C133.707 22.946 133.805 23.6458 133.805 24.4141V25.498H125.523V23.7207H131.266V23.5254C131.253 23.1152 131.174 22.7409 131.031 22.4023C130.888 22.0573 130.667 21.7839 130.367 21.582C130.068 21.3737 129.68 21.2695 129.205 21.2695C128.821 21.2695 128.486 21.3542 128.199 21.5234C127.919 21.6862 127.685 21.9206 127.496 22.2266C127.314 22.526 127.177 22.8841 127.086 23.3008C126.995 23.7174 126.949 24.1797 126.949 24.6875V25.0781C126.949 25.5208 127.008 25.931 127.125 26.3086C127.249 26.6862 127.428 27.015 127.662 27.2949C127.903 27.5684 128.189 27.7832 128.521 27.9395C128.86 28.0892 129.244 28.1641 129.674 28.1641C130.214 28.1641 130.702 28.0599 131.139 27.8516C131.581 27.6367 131.965 27.321 132.291 26.9043L133.59 28.252C133.368 28.5775 133.069 28.89 132.691 29.1895C132.32 29.4889 131.871 29.7331 131.344 29.9219C130.816 30.1042 130.208 30.1953 129.518 30.1953Z" fill="white"/>
<path d="M41.1167 15.1167C39.3786 15.1472 37.704 15.7753 36.3746 16.8954C35.0451 18.0154 34.1419 19.559 33.8167 21.2667C32.1845 18.7299 30.9061 15.9824 30.0167 13.1H26.25V23.1C26.25 24.0459 25.8742 24.9531 25.2054 25.622C24.5365 26.2909 23.6293 26.6667 22.6833 26.6667C21.7374 26.6667 20.8302 26.2909 20.1613 25.622C19.4924 24.9531 19.1167 24.0459 19.1167 23.1V13.1L15.3333 13.1833V23.1833C15.3444 25.1283 16.1276 26.9891 17.5107 28.3566C18.8938 29.724 20.7634 30.486 22.7083 30.475C24.6533 30.4639 26.5141 29.6807 27.8816 28.2976C29.249 26.9146 30.0111 25.0449 30 23.1V21.4333C30.7997 23.0018 31.7191 24.5062 32.75 25.9333L30.45 36.95H34.3167L35.9833 28.9333C37.528 29.926 39.3307 30.4419 41.1667 30.4167C43.1867 30.4167 45.1241 29.6142 46.5525 28.1858C47.9809 26.7574 48.7833 24.8201 48.7833 22.8C48.7833 20.7799 47.9809 18.8426 46.5525 17.4142C45.1241 15.9858 43.1867 15.1833 41.1667 15.1833L41.1167 15.1167ZM41.1167 26.5C39.5506 26.4494 38.0497 25.8608 36.8667 24.8333L37.25 23.3167V23.2333C37.5167 21.5667 38.35 18.9 41.1667 18.9C41.6605 18.8956 42.1504 18.9888 42.6081 19.1742C43.0659 19.3597 43.4825 19.6337 43.834 19.9806C44.1855 20.3275 44.4651 20.7404 44.6566 21.1957C44.8481 21.6509 44.9478 22.1395 44.95 22.6333C44.9143 23.6333 44.5067 24.5839 43.8069 25.2991C43.1071 26.0143 42.1656 26.4425 41.1667 26.5H41.1167Z" fill="#4ECB71"/>
<defs>
<filter id="filter0_d_2_23" x="0" y="0" width="168" height="53" filterUnits="userSpaceOnUse" color-interpolation-filters="sRGB">
<feFlood flood-opacity="0" result="BackgroundImageFix"/>
<feColorMatrix in="SourceAlpha" type="matrix" values="0 0 0 0 0 0 0 0 0 0 0 0 0 0 0 0 0 0 127 0" result="hardAlpha"/>
<feOffset dy="4"/>
<feGaussianBlur stdDeviation="2"/>
<feComposite in2="hardAlpha" operator="out"/>
<feColorMatrix type="matrix" values="0 0 0 0 0 0 0 0 0 0 0 0 0 0 0 0 0 0 0.25 0"/>
<feBlend mode="normal" in2="BackgroundImageFix" result="effect1_dropShadow_2_23"/>
<feBlend mode="normal" in="SourceGraphic" in2="effect1_dropShadow_2_23" result="shape"/>
</filter>
</defs>
</svg>
