<svg width="168" height="53" viewBox="0 0 168 53" fill="none" xmlns="http://www.w3.org/2000/svg">
<g filter="url(#filter0_d_4_12)">
<rect x="4" width="160" height="45" rx="11" fill="#F9F9F9"/>
</g>
<path fill-rule="evenodd" clip-rule="evenodd" d="M30 22C30 28.627 24.627 34 18 34C11.373 34 6 28.627 6 22C6 15.373 11.373 10 18 10C24.627 10 30 15.373 30 22ZM12 26.2H21V19.6C21 19.3636 20.9534 19.1296 20.863 18.9112C20.7725 18.6928 20.6399 18.4944 20.4728 18.3272C20.3056 18.1601 20.1072 18.0275 19.8888 17.937C19.6704 17.8466 19.4364 17.8 19.2 17.8H10.2V24.4C10.2 24.8774 10.3896 25.3352 10.7272 25.6728C10.8944 25.8399 11.0928 25.9725 11.3112 26.063C11.5296 26.1534 11.7636 26.2 12 26.2ZM22.2 23.8L25.8 26.2V17.8L22.2 20.2V23.8Z" fill="#699BF7"/>
<path d="M42.1592 24.416C42.1592 24.2246 42.1296 24.0537 42.0703 23.9033C42.0156 23.7484 41.9131 23.6094 41.7627 23.4863C41.6169 23.3587 41.4095 23.2357 41.1406 23.1172C40.8763 22.9941 40.5345 22.8665 40.1152 22.7344C39.6504 22.5885 39.2174 22.4245 38.8164 22.2422C38.4154 22.0599 38.0622 21.848 37.7568 21.6064C37.4561 21.3649 37.2214 21.0869 37.0527 20.7725C36.8841 20.4535 36.7998 20.0843 36.7998 19.665C36.7998 19.2549 36.8864 18.8812 37.0596 18.5439C37.2373 18.2067 37.488 17.9173 37.8115 17.6758C38.1351 17.4297 38.5156 17.2406 38.9531 17.1084C39.3952 16.9762 39.8828 16.9102 40.416 16.9102C41.1543 16.9102 41.7923 17.0446 42.3301 17.3135C42.8724 17.5824 43.2917 17.9469 43.5879 18.4072C43.8841 18.8675 44.0322 19.3848 44.0322 19.959H42.1592C42.1592 19.6491 42.0931 19.3757 41.9609 19.1387C41.8333 18.9017 41.6374 18.7148 41.373 18.5781C41.1133 18.4414 40.7852 18.373 40.3887 18.373C40.0059 18.373 39.6868 18.43 39.4316 18.5439C39.181 18.6579 38.9919 18.8128 38.8643 19.0088C38.7412 19.2048 38.6797 19.4235 38.6797 19.665C38.6797 19.8473 38.723 20.0114 38.8096 20.1572C38.8962 20.2985 39.026 20.4329 39.1992 20.5605C39.3724 20.6836 39.5866 20.7998 39.8418 20.9092C40.1016 21.014 40.4023 21.1188 40.7441 21.2236C41.291 21.3877 41.7695 21.57 42.1797 21.7705C42.5944 21.971 42.9385 22.1989 43.2119 22.4541C43.4899 22.7093 43.6973 22.9964 43.834 23.3154C43.9753 23.6344 44.0459 23.9967 44.0459 24.4023C44.0459 24.8307 43.9616 25.2135 43.793 25.5508C43.6243 25.888 43.3828 26.1751 43.0684 26.4121C42.7539 26.6491 42.3757 26.8291 41.9336 26.9521C41.4961 27.0752 41.0062 27.1367 40.4639 27.1367C39.9808 27.1367 39.5023 27.0729 39.0283 26.9453C38.5589 26.8132 38.1328 26.6172 37.75 26.3574C37.3672 26.0931 37.0618 25.7604 36.834 25.3594C36.6061 24.9538 36.4922 24.4798 36.4922 23.9375H38.3789C38.3789 24.252 38.429 24.5208 38.5293 24.7441C38.6341 24.9629 38.7799 25.1429 38.9668 25.2842C39.1582 25.4209 39.3815 25.5212 39.6367 25.585C39.8919 25.6488 40.1676 25.6807 40.4639 25.6807C40.8467 25.6807 41.1611 25.6283 41.4072 25.5234C41.6579 25.4141 41.8447 25.2637 41.9678 25.0723C42.0954 24.8809 42.1592 24.6621 42.1592 24.416ZM48.3936 25.7148C48.6488 25.7148 48.8766 25.6647 49.0771 25.5645C49.2777 25.4642 49.4372 25.3229 49.5557 25.1406C49.6787 24.9583 49.7448 24.7464 49.7539 24.5049H51.4561C51.4469 25.0062 51.3057 25.4551 51.0322 25.8516C50.7588 26.248 50.3942 26.5625 49.9385 26.7949C49.4873 27.0228 48.9814 27.1367 48.4209 27.1367C47.8512 27.1367 47.3545 27.041 46.9307 26.8496C46.5068 26.6582 46.1536 26.3916 45.8711 26.0498C45.5931 25.708 45.3835 25.3115 45.2422 24.8604C45.1055 24.4092 45.0371 23.9261 45.0371 23.4111V23.1924C45.0371 22.6774 45.1055 22.1943 45.2422 21.7432C45.3835 21.292 45.5931 20.8955 45.8711 20.5537C46.1536 20.2119 46.5068 19.9453 46.9307 19.7539C47.3545 19.5625 47.849 19.4668 48.4141 19.4668C49.0111 19.4668 49.5352 19.583 49.9863 19.8154C50.4421 20.0479 50.7975 20.376 51.0527 20.7998C51.3125 21.2236 51.4469 21.7227 51.4561 22.2969H49.7539C49.7448 22.0326 49.6855 21.7956 49.5762 21.5859C49.4668 21.3763 49.3118 21.2077 49.1113 21.0801C48.9108 20.9525 48.667 20.8887 48.3799 20.8887C48.0745 20.8887 47.8193 20.9525 47.6143 21.0801C47.4137 21.2077 47.2565 21.3831 47.1426 21.6064C47.0332 21.8252 46.9557 22.0713 46.9102 22.3447C46.8691 22.6136 46.8486 22.8962 46.8486 23.1924V23.4111C46.8486 23.7119 46.8691 23.999 46.9102 24.2725C46.9557 24.5459 47.0332 24.792 47.1426 25.0107C47.2565 25.2249 47.4137 25.3958 47.6143 25.5234C47.8193 25.651 48.0791 25.7148 48.3936 25.7148ZM54.4297 16.5V27H52.6182V16.5H54.4297ZM54.1426 23.0352H53.6094C53.6094 22.5202 53.6777 22.0462 53.8145 21.6133C53.9512 21.1803 54.1449 20.8044 54.3955 20.4854C54.6462 20.1618 54.9447 19.9111 55.291 19.7334C55.6419 19.5557 56.0293 19.4668 56.4531 19.4668C56.8177 19.4668 57.1481 19.5192 57.4443 19.624C57.7451 19.7243 58.0026 19.8861 58.2168 20.1094C58.431 20.3327 58.5951 20.6243 58.709 20.9844C58.8275 21.3398 58.8867 21.7728 58.8867 22.2832V27H57.0684V22.2695C57.0684 21.9277 57.0182 21.6589 56.918 21.4629C56.8177 21.2624 56.6742 21.1188 56.4873 21.0322C56.305 20.9456 56.0794 20.9023 55.8105 20.9023C55.5189 20.9023 55.2682 20.9593 55.0586 21.0732C54.849 21.1826 54.6758 21.3353 54.5391 21.5312C54.4069 21.7272 54.3066 21.9528 54.2383 22.208C54.1745 22.4632 54.1426 22.7389 54.1426 23.0352ZM63.8018 27.1367C63.2412 27.1367 62.7376 27.0456 62.291 26.8633C61.8444 26.681 61.4639 26.4281 61.1494 26.1045C60.8395 25.7764 60.6003 25.3958 60.4316 24.9629C60.2676 24.5254 60.1855 24.056 60.1855 23.5547V23.2812C60.1855 22.7116 60.2676 22.1943 60.4316 21.7295C60.5957 21.2601 60.8281 20.8568 61.1289 20.5195C61.4297 20.1823 61.7897 19.9225 62.209 19.7402C62.6283 19.5579 63.0908 19.4668 63.5967 19.4668C64.1208 19.4668 64.5833 19.5557 64.9844 19.7334C65.3854 19.9066 65.7204 20.1527 65.9893 20.4717C66.2581 20.7907 66.4609 21.1735 66.5977 21.6201C66.7344 22.0622 66.8027 22.5521 66.8027 23.0898V23.8486H61.0059V22.6045H65.0254V22.4678C65.0163 22.1807 64.9616 21.9186 64.8613 21.6816C64.7611 21.4401 64.6061 21.2487 64.3965 21.1074C64.1868 20.9616 63.9157 20.8887 63.583 20.8887C63.3141 20.8887 63.0794 20.9479 62.8789 21.0664C62.6829 21.1803 62.5189 21.3444 62.3867 21.5586C62.2591 21.7682 62.1634 22.0189 62.0996 22.3105C62.0358 22.6022 62.0039 22.9258 62.0039 23.2812V23.5547C62.0039 23.8646 62.0449 24.1517 62.127 24.416C62.2135 24.6803 62.3389 24.9105 62.5029 25.1064C62.6715 25.2979 62.8721 25.4482 63.1045 25.5576C63.3415 25.6624 63.6104 25.7148 63.9111 25.7148C64.2894 25.7148 64.6312 25.6419 64.9365 25.4961C65.2464 25.3457 65.5153 25.1247 65.7432 24.833L66.6523 25.7764C66.4974 26.0042 66.2878 26.223 66.0234 26.4326C65.7637 26.6423 65.4492 26.8132 65.0801 26.9453C64.7109 27.0729 64.2848 27.1367 63.8018 27.1367ZM72.4492 25.4277V16.5H74.2676V27H72.627L72.4492 25.4277ZM67.6982 23.3906V23.2471C67.6982 22.682 67.762 22.1693 67.8896 21.709C68.0218 21.2441 68.2132 20.8454 68.4639 20.5127C68.7145 20.18 69.0176 19.9225 69.373 19.7402C69.7331 19.5579 70.141 19.4668 70.5967 19.4668C71.0387 19.4668 71.4238 19.5557 71.752 19.7334C72.0846 19.9111 72.3672 20.1641 72.5996 20.4922C72.8366 20.8203 73.0257 21.21 73.167 21.6611C73.3083 22.1077 73.4108 22.5999 73.4746 23.1377V23.5273C73.4108 24.0514 73.3083 24.5322 73.167 24.9697C73.0257 25.4072 72.8366 25.79 72.5996 26.1182C72.3672 26.4417 72.0846 26.6924 71.752 26.8701C71.4193 27.0479 71.0296 27.1367 70.583 27.1367C70.1318 27.1367 69.7262 27.0433 69.3662 26.8564C69.0107 26.6696 68.7077 26.4076 68.457 26.0703C68.2109 25.7331 68.0218 25.3366 67.8896 24.8809C67.762 24.4251 67.6982 23.9284 67.6982 23.3906ZM69.5098 23.2471V23.3906C69.5098 23.7096 69.5371 24.0081 69.5918 24.2861C69.6465 24.5641 69.7354 24.8102 69.8584 25.0244C69.9814 25.234 70.1387 25.3981 70.3301 25.5166C70.526 25.6351 70.763 25.6943 71.041 25.6943C71.3965 25.6943 71.6882 25.6169 71.916 25.4619C72.1484 25.3024 72.3285 25.0859 72.4561 24.8125C72.5837 24.5345 72.6657 24.2223 72.7021 23.876V22.8027C72.6839 22.5293 72.6361 22.2764 72.5586 22.0439C72.4857 21.8115 72.3809 21.611 72.2441 21.4424C72.112 21.2738 71.9479 21.1416 71.752 21.0459C71.556 20.9502 71.3236 20.9023 71.0547 20.9023C70.7767 20.9023 70.5397 20.9639 70.3438 21.0869C70.1478 21.2054 69.9883 21.3717 69.8652 21.5859C69.7422 21.8001 69.651 22.0485 69.5918 22.3311C69.5371 22.6136 69.5098 22.9189 69.5098 23.2471ZM80.3037 25.2432V19.6035H82.1221V27H80.4131L80.3037 25.2432ZM80.5361 23.7119L81.0967 23.6982C81.0967 24.195 81.042 24.653 80.9326 25.0723C80.8232 25.4915 80.6523 25.8561 80.4199 26.166C80.1921 26.4714 79.9027 26.7106 79.5518 26.8838C79.2008 27.0524 78.7861 27.1367 78.3076 27.1367C77.943 27.1367 77.6104 27.0866 77.3096 26.9863C77.0088 26.8815 76.749 26.7197 76.5303 26.501C76.3161 26.2777 76.1497 25.9928 76.0312 25.6465C75.9128 25.2956 75.8535 24.874 75.8535 24.3818V19.6035H77.6582V24.3955C77.6582 24.6416 77.6855 24.8467 77.7402 25.0107C77.7995 25.1748 77.8792 25.3092 77.9795 25.4141C78.0843 25.5143 78.2051 25.5872 78.3418 25.6328C78.4831 25.6738 78.6335 25.6943 78.793 25.6943C79.2305 25.6943 79.5745 25.6077 79.8252 25.4346C80.0804 25.2568 80.2627 25.0199 80.3721 24.7236C80.4814 24.4229 80.5361 24.0856 80.5361 23.7119ZM85.6357 16.5V27H83.8242V16.5H85.6357ZM90.6807 27.1367C90.1201 27.1367 89.6165 27.0456 89.1699 26.8633C88.7233 26.681 88.3428 26.4281 88.0283 26.1045C87.7184 25.7764 87.4792 25.3958 87.3105 24.9629C87.1465 24.5254 87.0645 24.056 87.0645 23.5547V23.2812C87.0645 22.7116 87.1465 22.1943 87.3105 21.7295C87.4746 21.2601 87.707 20.8568 88.0078 20.5195C88.3086 20.1823 88.6686 19.9225 89.0879 19.7402C89.5072 19.5579 89.9697 19.4668 90.4756 19.4668C90.9997 19.4668 91.4622 19.5557 91.8633 19.7334C92.2643 19.9066 92.5993 20.1527 92.8682 20.4717C93.137 20.7907 93.3398 21.1735 93.4766 21.6201C93.6133 22.0622 93.6816 22.5521 93.6816 23.0898V23.8486H87.8848V22.6045H91.9043V22.4678C91.8952 22.1807 91.8405 21.9186 91.7402 21.6816C91.64 21.4401 91.485 21.2487 91.2754 21.1074C91.0658 20.9616 90.7946 20.8887 90.4619 20.8887C90.193 20.8887 89.9583 20.9479 89.7578 21.0664C89.5618 21.1803 89.3978 21.3444 89.2656 21.5586C89.138 21.7682 89.0423 22.0189 88.9785 22.3105C88.9147 22.6022 88.8828 22.9258 88.8828 23.2812V23.5547C88.8828 23.8646 88.9238 24.1517 89.0059 24.416C89.0924 24.6803 89.2178 24.9105 89.3818 25.1064C89.5505 25.2979 89.751 25.4482 89.9834 25.5576C90.2204 25.6624 90.4893 25.7148 90.79 25.7148C91.1683 25.7148 91.5101 25.6419 91.8154 25.4961C92.1253 25.3457 92.3942 25.1247 92.6221 24.833L93.5312 25.7764C93.3763 26.0042 93.1667 26.223 92.9023 26.4326C92.6426 26.6423 92.3281 26.8132 91.959 26.9453C91.5898 27.0729 91.1637 27.1367 90.6807 27.1367ZM102.452 25.4277V22.0166C102.452 21.766 102.409 21.5495 102.322 21.3672C102.236 21.1849 102.104 21.0436 101.926 20.9434C101.748 20.8431 101.522 20.793 101.249 20.793C101.007 20.793 100.796 20.834 100.613 20.916C100.436 20.998 100.299 21.1143 100.203 21.2646C100.107 21.4105 100.06 21.5791 100.06 21.7705H98.248C98.248 21.4652 98.321 21.1758 98.4668 20.9023C98.6126 20.6243 98.82 20.3783 99.0889 20.1641C99.3623 19.9453 99.6882 19.7744 100.066 19.6514C100.449 19.5283 100.878 19.4668 101.352 19.4668C101.912 19.4668 102.411 19.5625 102.849 19.7539C103.291 19.9408 103.637 20.2233 103.888 20.6016C104.143 20.9798 104.271 21.4561 104.271 22.0303V25.2568C104.271 25.626 104.293 25.9427 104.339 26.207C104.389 26.4668 104.462 26.6924 104.558 26.8838V27H102.719C102.632 26.8132 102.566 26.5762 102.521 26.2891C102.475 25.9974 102.452 25.7103 102.452 25.4277ZM102.705 22.4951L102.719 23.5684H101.577C101.295 23.5684 101.046 23.598 100.832 23.6572C100.618 23.7119 100.442 23.7939 100.306 23.9033C100.169 24.0081 100.066 24.1357 99.998 24.2861C99.9297 24.432 99.8955 24.5983 99.8955 24.7852C99.8955 24.9674 99.9365 25.1315 100.019 25.2773C100.105 25.4232 100.228 25.5394 100.388 25.626C100.552 25.708 100.743 25.749 100.962 25.749C101.281 25.749 101.559 25.6852 101.796 25.5576C102.033 25.4255 102.217 25.266 102.35 25.0791C102.482 24.8923 102.552 24.7145 102.562 24.5459L103.081 25.3252C103.017 25.512 102.922 25.7103 102.794 25.9199C102.666 26.1296 102.502 26.3255 102.302 26.5078C102.101 26.6901 101.86 26.8405 101.577 26.959C101.295 27.0775 100.966 27.1367 100.593 27.1367C100.114 27.1367 99.6859 27.041 99.3076 26.8496C98.9294 26.6582 98.6309 26.3962 98.4121 26.0635C98.1934 25.7308 98.084 25.3525 98.084 24.9287C98.084 24.5368 98.1569 24.1904 98.3027 23.8896C98.4486 23.5889 98.665 23.3359 98.9521 23.1309C99.2393 22.9212 99.5947 22.764 100.019 22.6592C100.447 22.5498 100.937 22.4951 101.488 22.4951H102.705ZM111.182 21.1211V27H109.377V19.6035H111.079L111.182 21.1211ZM110.915 23.0352H110.361C110.361 22.5202 110.423 22.0462 110.546 21.6133C110.674 21.1803 110.86 20.8044 111.106 20.4854C111.353 20.1618 111.656 19.9111 112.016 19.7334C112.38 19.5557 112.802 19.4668 113.28 19.4668C113.613 19.4668 113.918 19.5169 114.196 19.6172C114.474 19.7129 114.714 19.8656 114.914 20.0752C115.119 20.2803 115.276 20.5492 115.386 20.8818C115.495 21.21 115.55 21.6042 115.55 22.0645V27H113.745V22.249C113.745 21.9027 113.695 21.6315 113.595 21.4355C113.499 21.2396 113.36 21.1029 113.178 21.0254C112.995 20.9434 112.777 20.9023 112.521 20.9023C112.239 20.9023 111.995 20.9593 111.79 21.0732C111.59 21.1826 111.423 21.3353 111.291 21.5312C111.163 21.7272 111.068 21.9528 111.004 22.208C110.945 22.4632 110.915 22.7389 110.915 23.0352ZM115.413 22.7002L114.668 22.8369C114.673 22.3721 114.736 21.9368 114.859 21.5312C114.982 21.1211 115.162 20.7633 115.399 20.458C115.641 20.1481 115.939 19.9066 116.295 19.7334C116.655 19.5557 117.07 19.4668 117.539 19.4668C117.904 19.4668 118.232 19.5192 118.523 19.624C118.82 19.7243 119.073 19.8861 119.282 20.1094C119.492 20.3281 119.651 20.613 119.761 20.9639C119.875 21.3148 119.932 21.7432 119.932 22.249V27H118.113V22.2422C118.113 21.8822 118.063 21.6064 117.963 21.415C117.867 21.2236 117.728 21.0915 117.546 21.0186C117.364 20.9411 117.149 20.9023 116.903 20.9023C116.653 20.9023 116.434 20.9502 116.247 21.0459C116.065 21.137 115.91 21.2646 115.782 21.4287C115.659 21.5928 115.566 21.7842 115.502 22.0029C115.443 22.2171 115.413 22.4495 115.413 22.7002ZM124.874 27.1367C124.313 27.1367 123.81 27.0456 123.363 26.8633C122.917 26.681 122.536 26.4281 122.222 26.1045C121.912 25.7764 121.673 25.3958 121.504 24.9629C121.34 24.5254 121.258 24.056 121.258 23.5547V23.2812C121.258 22.7116 121.34 22.1943 121.504 21.7295C121.668 21.2601 121.9 20.8568 122.201 20.5195C122.502 20.1823 122.862 19.9225 123.281 19.7402C123.701 19.5579 124.163 19.4668 124.669 19.4668C125.193 19.4668 125.656 19.5557 126.057 19.7334C126.458 19.9066 126.793 20.1527 127.062 20.4717C127.33 20.7907 127.533 21.1735 127.67 21.6201C127.807 22.0622 127.875 22.5521 127.875 23.0898V23.8486H122.078V22.6045H126.098V22.4678C126.089 22.1807 126.034 21.9186 125.934 21.6816C125.833 21.4401 125.678 21.2487 125.469 21.1074C125.259 20.9616 124.988 20.8887 124.655 20.8887C124.386 20.8887 124.152 20.9479 123.951 21.0664C123.755 21.1803 123.591 21.3444 123.459 21.5586C123.331 21.7682 123.236 22.0189 123.172 22.3105C123.108 22.6022 123.076 22.9258 123.076 23.2812V23.5547C123.076 23.8646 123.117 24.1517 123.199 24.416C123.286 24.6803 123.411 24.9105 123.575 25.1064C123.744 25.2979 123.944 25.4482 124.177 25.5576C124.414 25.6624 124.683 25.7148 124.983 25.7148C125.362 25.7148 125.703 25.6419 126.009 25.4961C126.319 25.3457 126.588 25.1247 126.815 24.833L127.725 25.7764C127.57 26.0042 127.36 26.223 127.096 26.4326C126.836 26.6423 126.521 26.8132 126.152 26.9453C125.783 27.0729 125.357 27.1367 124.874 27.1367ZM132.407 27.1367C131.847 27.1367 131.343 27.0456 130.896 26.8633C130.45 26.681 130.069 26.4281 129.755 26.1045C129.445 25.7764 129.206 25.3958 129.037 24.9629C128.873 24.5254 128.791 24.056 128.791 23.5547V23.2812C128.791 22.7116 128.873 22.1943 129.037 21.7295C129.201 21.2601 129.434 20.8568 129.734 20.5195C130.035 20.1823 130.395 19.9225 130.814 19.7402C131.234 19.5579 131.696 19.4668 132.202 19.4668C132.726 19.4668 133.189 19.5557 133.59 19.7334C133.991 19.9066 134.326 20.1527 134.595 20.4717C134.864 20.7907 135.066 21.1735 135.203 21.6201C135.34 22.0622 135.408 22.5521 135.408 23.0898V23.8486H129.611V22.6045H133.631V22.4678C133.622 22.1807 133.567 21.9186 133.467 21.6816C133.367 21.4401 133.212 21.2487 133.002 21.1074C132.792 20.9616 132.521 20.8887 132.188 20.8887C131.92 20.8887 131.685 20.9479 131.484 21.0664C131.288 21.1803 131.124 21.3444 130.992 21.5586C130.865 21.7682 130.769 22.0189 130.705 22.3105C130.641 22.6022 130.609 22.9258 130.609 23.2812V23.5547C130.609 23.8646 130.65 24.1517 130.732 24.416C130.819 24.6803 130.944 24.9105 131.108 25.1064C131.277 25.2979 131.478 25.4482 131.71 25.5576C131.947 25.6624 132.216 25.7148 132.517 25.7148C132.895 25.7148 133.237 25.6419 133.542 25.4961C133.852 25.3457 134.121 25.1247 134.349 24.833L135.258 25.7764C135.103 26.0042 134.893 26.223 134.629 26.4326C134.369 26.6423 134.055 26.8132 133.686 26.9453C133.316 27.0729 132.89 27.1367 132.407 27.1367ZM140.118 19.6035V20.9023H135.88V19.6035H140.118ZM137.015 17.7852H138.826V24.8672C138.826 25.0859 138.856 25.2546 138.915 25.373C138.974 25.4915 139.063 25.5713 139.182 25.6123C139.3 25.6533 139.441 25.6738 139.605 25.6738C139.724 25.6738 139.833 25.667 139.934 25.6533C140.034 25.6396 140.118 25.626 140.187 25.6123L140.193 26.9658C140.043 27.016 139.872 27.057 139.681 27.0889C139.494 27.1208 139.282 27.1367 139.045 27.1367C138.639 27.1367 138.284 27.0684 137.979 26.9316C137.673 26.7904 137.436 26.5648 137.268 26.2549C137.099 25.9404 137.015 25.5257 137.015 25.0107V17.7852ZM143.235 19.6035V27H141.424V19.6035H143.235ZM141.301 17.6689C141.301 17.4001 141.392 17.1768 141.574 16.999C141.761 16.8213 142.012 16.7324 142.326 16.7324C142.641 16.7324 142.889 16.8213 143.071 16.999C143.258 17.1768 143.352 17.4001 143.352 17.6689C143.352 17.9333 143.258 18.1543 143.071 18.332C142.889 18.5098 142.641 18.5986 142.326 18.5986C142.012 18.5986 141.761 18.5098 141.574 18.332C141.392 18.1543 141.301 17.9333 141.301 17.6689ZM146.729 21.1826V27H144.924V19.6035H146.619L146.729 21.1826ZM146.441 23.0352H145.908C145.913 22.4974 145.986 22.0098 146.127 21.5723C146.268 21.1348 146.466 20.7588 146.722 20.4443C146.981 20.1299 147.289 19.8883 147.645 19.7197C148 19.5511 148.396 19.4668 148.834 19.4668C149.189 19.4668 149.511 19.5169 149.798 19.6172C150.085 19.7174 150.331 19.877 150.536 20.0957C150.746 20.3145 150.905 20.6016 151.015 20.957C151.129 21.3079 151.186 21.7409 151.186 22.2559V27H149.367V22.2422C149.367 21.9049 149.317 21.6383 149.217 21.4424C149.121 21.2464 148.98 21.1074 148.793 21.0254C148.611 20.9434 148.385 20.9023 148.116 20.9023C147.838 20.9023 147.594 20.9593 147.385 21.0732C147.18 21.1826 147.007 21.3353 146.865 21.5312C146.729 21.7272 146.624 21.9528 146.551 22.208C146.478 22.4632 146.441 22.7389 146.441 23.0352ZM157.481 19.6035H159.122V26.7744C159.122 27.4443 158.976 28.0117 158.685 28.4766C158.397 28.946 157.994 29.3014 157.475 29.543C156.955 29.7891 156.351 29.9121 155.663 29.9121C155.367 29.9121 155.046 29.8711 154.699 29.7891C154.357 29.707 154.027 29.5771 153.708 29.3994C153.394 29.2262 153.132 29.0007 152.922 28.7227L153.735 27.6562C153.981 27.9434 154.259 28.1598 154.569 28.3057C154.879 28.4561 155.214 28.5312 155.574 28.5312C155.939 28.5312 156.249 28.4629 156.504 28.3262C156.764 28.194 156.962 27.998 157.099 27.7383C157.24 27.4831 157.311 27.1686 157.311 26.7949V21.292L157.481 19.6035ZM152.484 23.3906V23.2471C152.484 22.682 152.553 22.1693 152.689 21.709C152.826 21.2441 153.022 20.8454 153.277 20.5127C153.537 20.18 153.849 19.9225 154.214 19.7402C154.583 19.5579 154.998 19.4668 155.458 19.4668C155.946 19.4668 156.356 19.5557 156.688 19.7334C157.026 19.9111 157.304 20.1641 157.522 20.4922C157.746 20.8203 157.919 21.21 158.042 21.6611C158.17 22.1077 158.268 22.5999 158.336 23.1377V23.5273C158.272 24.0514 158.17 24.5322 158.028 24.9697C157.892 25.4072 157.709 25.79 157.481 26.1182C157.254 26.4417 156.971 26.6924 156.634 26.8701C156.297 27.0479 155.9 27.1367 155.444 27.1367C154.989 27.1367 154.578 27.0433 154.214 26.8564C153.849 26.6696 153.537 26.4076 153.277 26.0703C153.022 25.7331 152.826 25.3366 152.689 24.8809C152.553 24.4251 152.484 23.9284 152.484 23.3906ZM154.289 23.2471V23.3906C154.289 23.7096 154.321 24.0081 154.385 24.2861C154.449 24.5641 154.547 24.8102 154.679 25.0244C154.811 25.234 154.977 25.3981 155.178 25.5166C155.378 25.6351 155.618 25.6943 155.896 25.6943C156.269 25.6943 156.575 25.6169 156.812 25.4619C157.053 25.3024 157.235 25.0859 157.358 24.8125C157.486 24.5345 157.568 24.2223 157.604 23.876V22.8027C157.582 22.5293 157.532 22.2764 157.454 22.0439C157.381 21.8115 157.279 21.611 157.146 21.4424C157.014 21.2738 156.846 21.1416 156.641 21.0459C156.436 20.9502 156.192 20.9023 155.909 20.9023C155.636 20.9023 155.396 20.9639 155.191 21.0869C154.986 21.2054 154.818 21.3717 154.686 21.5859C154.553 21.8001 154.453 22.0485 154.385 22.3311C154.321 22.6136 154.289 22.9189 154.289 23.2471Z" fill="black"/>
<defs>
<filter id="filter0_d_4_12" x="0" y="0" width="168" height="53" filterUnits="userSpaceOnUse" color-interpolation-filters="sRGB">
<feFlood flood-opacity="0" result="BackgroundImageFix"/>
<feColorMatrix in="SourceAlpha" type="matrix" values="0 0 0 0 0 0 0 0 0 0 0 0 0 0 0 0 0 0 127 0" result="hardAlpha"/>
<feOffset dy="4"/>
<feGaussianBlur stdDeviation="2"/>
<feComposite in2="hardAlpha" operator="out"/>
<feColorMatrix type="matrix" values="0 0 0 0 0 0 0 0 0 0 0 0 0 0 0 0 0 0 0.25 0"/>
<feBlend mode="normal" in2="BackgroundImageFix" result="effect1_dropShadow_4_12"/>
<feBlend mode="normal" in="SourceGraphic" in2="effect1_dropShadow_4_12" result="shape"/>
</filter>
</defs>
</svg>
