<svg width="168" height="53" viewBox="0 0 168 53" fill="none" xmlns="http://www.w3.org/2000/svg">
<g filter="url(#filter0_d_5_26)">
<rect x="4" width="160" height="45" rx="11" fill="#174153"/>
</g>
<path d="M53.3574 26.2168L56.9023 14.7812H59.8809L54.8613 29H52.8789L53.3574 26.2168ZM50.0859 14.7812L53.6113 26.2168L54.1191 29H52.1172L47.1172 14.7812H50.0859ZM65.4668 29.1953C64.666 29.1953 63.9466 29.0651 63.3086 28.8047C62.6706 28.5443 62.127 28.1829 61.6777 27.7207C61.235 27.252 60.8932 26.7083 60.6523 26.0898C60.418 25.4648 60.3008 24.7943 60.3008 24.0781V23.6875C60.3008 22.8737 60.418 22.1348 60.6523 21.4707C60.8867 20.8001 61.2188 20.224 61.6484 19.7422C62.0781 19.2604 62.5924 18.8893 63.1914 18.6289C63.7904 18.3685 64.4512 18.2383 65.1738 18.2383C65.9225 18.2383 66.5833 18.3652 67.1562 18.6191C67.7292 18.8665 68.2077 19.2181 68.5918 19.6738C68.9759 20.1296 69.2656 20.6764 69.4609 21.3145C69.6562 21.946 69.7539 22.6458 69.7539 23.4141V24.498H61.4727V22.7207H67.2148V22.5254C67.2018 22.1152 67.1237 21.7409 66.9805 21.4023C66.8372 21.0573 66.6159 20.7839 66.3164 20.582C66.0169 20.3737 65.6296 20.2695 65.1543 20.2695C64.7702 20.2695 64.4349 20.3542 64.1484 20.5234C63.8685 20.6862 63.6341 20.9206 63.4453 21.2266C63.263 21.526 63.1263 21.8841 63.0352 22.3008C62.944 22.7174 62.8984 23.1797 62.8984 23.6875V24.0781C62.8984 24.5208 62.957 24.931 63.0742 25.3086C63.1979 25.6862 63.377 26.015 63.6113 26.2949C63.8522 26.5684 64.1387 26.7832 64.4707 26.9395C64.8092 27.0892 65.1934 27.1641 65.623 27.1641C66.1634 27.1641 66.6517 27.0599 67.0879 26.8516C67.5306 26.6367 67.9147 26.321 68.2402 25.9043L69.5391 27.252C69.3177 27.5775 69.0182 27.89 68.6406 28.1895C68.2695 28.4889 67.8203 28.7331 67.293 28.9219C66.7656 29.1042 66.1569 29.1953 65.4668 29.1953ZM74.0605 20.5918V29H71.4824V18.4336H73.9238L74.0605 20.5918ZM77.2734 18.3652L77.2344 20.7676C77.0911 20.7415 76.9284 20.722 76.7461 20.709C76.5703 20.696 76.4043 20.6895 76.248 20.6895C75.8509 20.6895 75.5026 20.7448 75.2031 20.8555C74.9036 20.9596 74.653 21.1126 74.4512 21.3145C74.2559 21.5163 74.1061 21.7637 74.002 22.0566C73.8978 22.3431 73.8392 22.6686 73.8262 23.0332L73.2695 22.9648C73.2695 22.2943 73.3379 21.6725 73.4746 21.0996C73.6113 20.5267 73.8099 20.0254 74.0703 19.5957C74.3307 19.166 74.6562 18.834 75.0469 18.5996C75.444 18.3587 75.8997 18.2383 76.4141 18.2383C76.5573 18.2383 76.7103 18.2513 76.873 18.2773C77.0423 18.2969 77.1758 18.3262 77.2734 18.3652ZM88.416 29.1953C87.6152 29.1953 86.8958 29.0651 86.2578 28.8047C85.6198 28.5443 85.0762 28.1829 84.627 27.7207C84.1842 27.252 83.8424 26.7083 83.6016 26.0898C83.3672 25.4648 83.25 24.7943 83.25 24.0781V23.6875C83.25 22.8737 83.3672 22.1348 83.6016 21.4707C83.8359 20.8001 84.168 20.224 84.5977 19.7422C85.0273 19.2604 85.5417 18.8893 86.1406 18.6289C86.7396 18.3685 87.4004 18.2383 88.123 18.2383C88.8717 18.2383 89.5326 18.3652 90.1055 18.6191C90.6784 18.8665 91.1569 19.2181 91.541 19.6738C91.9251 20.1296 92.2148 20.6764 92.4102 21.3145C92.6055 21.946 92.7031 22.6458 92.7031 23.4141V24.498H84.4219V22.7207H90.1641V22.5254C90.151 22.1152 90.0729 21.7409 89.9297 21.4023C89.7865 21.0573 89.5651 20.7839 89.2656 20.582C88.9661 20.3737 88.5788 20.2695 88.1035 20.2695C87.7194 20.2695 87.3841 20.3542 87.0977 20.5234C86.8177 20.6862 86.5833 20.9206 86.3945 21.2266C86.2122 21.526 86.0755 21.8841 85.9844 22.3008C85.8932 22.7174 85.8477 23.1797 85.8477 23.6875V24.0781C85.8477 24.5208 85.9062 24.931 86.0234 25.3086C86.1471 25.6862 86.3262 26.015 86.5605 26.2949C86.8014 26.5684 87.0879 26.7832 87.4199 26.9395C87.7585 27.0892 88.1426 27.1641 88.5723 27.1641C89.1126 27.1641 89.6009 27.0599 90.0371 26.8516C90.4798 26.6367 90.8639 26.321 91.1895 25.9043L92.4883 27.252C92.2669 27.5775 91.9674 27.89 91.5898 28.1895C91.2188 28.4889 90.7695 28.7331 90.2422 28.9219C89.7148 29.1042 89.1061 29.1953 88.416 29.1953ZM96.9609 20.6895V29H94.3828V18.4336H96.8047L96.9609 20.6895ZM96.5508 23.3359H95.7891C95.7956 22.5677 95.8997 21.8711 96.1016 21.2461C96.3034 20.6211 96.5866 20.084 96.9512 19.6348C97.3223 19.1855 97.7617 18.8405 98.2695 18.5996C98.7773 18.3587 99.3438 18.2383 99.9688 18.2383C100.477 18.2383 100.936 18.3099 101.346 18.4531C101.756 18.5964 102.107 18.8242 102.4 19.1367C102.7 19.4492 102.928 19.8594 103.084 20.3672C103.247 20.8685 103.328 21.487 103.328 22.2227V29H100.73V22.2031C100.73 21.7214 100.659 21.3405 100.516 21.0605C100.379 20.7806 100.177 20.582 99.9102 20.4648C99.6497 20.3477 99.3275 20.2891 98.9434 20.2891C98.5462 20.2891 98.1979 20.3704 97.8984 20.5332C97.6055 20.6895 97.3581 20.9076 97.1562 21.1875C96.9609 21.4674 96.8112 21.7897 96.707 22.1543C96.6029 22.5189 96.5508 22.9128 96.5508 23.3359ZM114.09 27.0469L116.551 18.4336H119.246L115.623 29H113.982L114.09 27.0469ZM112.293 18.4336L114.783 27.0664L114.871 29H113.221L109.588 18.4336H112.293ZM123.338 18.4336V29H120.75V18.4336H123.338ZM120.574 15.6699C120.574 15.2858 120.704 14.9668 120.965 14.7129C121.232 14.459 121.59 14.332 122.039 14.332C122.488 14.332 122.843 14.459 123.104 14.7129C123.37 14.9668 123.504 15.2858 123.504 15.6699C123.504 16.0475 123.37 16.3633 123.104 16.6172C122.843 16.8711 122.488 16.998 122.039 16.998C121.59 16.998 121.232 16.8711 120.965 16.6172C120.704 16.3633 120.574 16.0475 120.574 15.6699ZM132.137 26.7539V14H134.734V29H132.391L132.137 26.7539ZM125.35 23.8438V23.6387C125.35 22.8314 125.441 22.099 125.623 21.4414C125.812 20.7773 126.085 20.2077 126.443 19.7324C126.801 19.2572 127.234 18.8893 127.742 18.6289C128.257 18.3685 128.839 18.2383 129.49 18.2383C130.122 18.2383 130.672 18.3652 131.141 18.6191C131.616 18.873 132.02 19.2344 132.352 19.7031C132.69 20.1719 132.96 20.7285 133.162 21.373C133.364 22.0111 133.51 22.7142 133.602 23.4824V24.0391C133.51 24.7878 133.364 25.4746 133.162 26.0996C132.96 26.7246 132.69 27.2715 132.352 27.7402C132.02 28.2025 131.616 28.5605 131.141 28.8145C130.665 29.0684 130.109 29.1953 129.471 29.1953C128.826 29.1953 128.247 29.0618 127.732 28.7949C127.225 28.528 126.792 28.1536 126.434 27.6719C126.082 27.1901 125.812 26.6237 125.623 25.9727C125.441 25.3216 125.35 24.612 125.35 23.8438ZM127.938 23.6387V23.8438C127.938 24.2995 127.977 24.7259 128.055 25.123C128.133 25.5202 128.26 25.8717 128.436 26.1777C128.611 26.4772 128.836 26.7116 129.109 26.8809C129.389 27.0501 129.728 27.1348 130.125 27.1348C130.633 27.1348 131.049 27.0241 131.375 26.8027C131.707 26.5749 131.964 26.2656 132.146 25.875C132.329 25.4779 132.446 25.0319 132.498 24.5371V23.0039C132.472 22.6133 132.404 22.252 132.293 21.9199C132.189 21.5879 132.039 21.3014 131.844 21.0605C131.655 20.8197 131.421 20.6309 131.141 20.4941C130.861 20.3574 130.529 20.2891 130.145 20.2891C129.747 20.2891 129.409 20.377 129.129 20.5527C128.849 20.722 128.621 20.9596 128.445 21.2656C128.27 21.5716 128.139 21.9264 128.055 22.3301C127.977 22.7337 127.938 23.1699 127.938 23.6387ZM141.814 29.1953C141.014 29.1953 140.294 29.0651 139.656 28.8047C139.018 28.5443 138.475 28.1829 138.025 27.7207C137.583 27.252 137.241 26.7083 137 26.0898C136.766 25.4648 136.648 24.7943 136.648 24.0781V23.6875C136.648 22.8737 136.766 22.1348 137 21.4707C137.234 20.8001 137.566 20.224 137.996 19.7422C138.426 19.2604 138.94 18.8893 139.539 18.6289C140.138 18.3685 140.799 18.2383 141.521 18.2383C142.27 18.2383 142.931 18.3652 143.504 18.6191C144.077 18.8665 144.555 19.2181 144.939 19.6738C145.324 20.1296 145.613 20.6764 145.809 21.3145C146.004 21.946 146.102 22.6458 146.102 23.4141V24.498H137.82V22.7207H143.562V22.5254C143.549 22.1152 143.471 21.7409 143.328 21.4023C143.185 21.0573 142.964 20.7839 142.664 20.582C142.365 20.3737 141.977 20.2695 141.502 20.2695C141.118 20.2695 140.783 20.3542 140.496 20.5234C140.216 20.6862 139.982 20.9206 139.793 21.2266C139.611 21.526 139.474 21.8841 139.383 22.3008C139.292 22.7174 139.246 23.1797 139.246 23.6875V24.0781C139.246 24.5208 139.305 24.931 139.422 25.3086C139.546 25.6862 139.725 26.015 139.959 26.2949C140.2 26.5684 140.486 26.7832 140.818 26.9395C141.157 27.0892 141.541 27.1641 141.971 27.1641C142.511 27.1641 142.999 27.0599 143.436 26.8516C143.878 26.6367 144.262 26.321 144.588 25.9043L145.887 27.252C145.665 27.5775 145.366 27.89 144.988 28.1895C144.617 28.4889 144.168 28.7331 143.641 28.9219C143.113 29.1042 142.505 29.1953 141.814 29.1953ZM147.371 23.8242V23.6191C147.371 22.8444 147.482 22.1315 147.703 21.4805C147.924 20.8229 148.247 20.2533 148.67 19.7715C149.093 19.2897 149.611 18.9154 150.223 18.6484C150.835 18.375 151.531 18.2383 152.312 18.2383C153.107 18.2383 153.81 18.375 154.422 18.6484C155.04 18.9154 155.561 19.2897 155.984 19.7715C156.408 20.2533 156.73 20.8229 156.951 21.4805C157.173 22.1315 157.283 22.8444 157.283 23.6191V23.8242C157.283 24.5924 157.173 25.3053 156.951 25.9629C156.73 26.6139 156.408 27.1836 155.984 27.6719C155.561 28.1536 155.044 28.528 154.432 28.7949C153.82 29.0618 153.12 29.1953 152.332 29.1953C151.551 29.1953 150.851 29.0618 150.232 28.7949C149.614 28.528 149.093 28.1536 148.67 27.6719C148.247 27.1836 147.924 26.6139 147.703 25.9629C147.482 25.3053 147.371 24.5924 147.371 23.8242ZM149.949 23.6191V23.8242C149.949 24.2865 149.995 24.7194 150.086 25.123C150.177 25.5267 150.317 25.8815 150.506 26.1875C150.695 26.4935 150.939 26.7344 151.238 26.9102C151.544 27.0794 151.909 27.1641 152.332 27.1641C152.749 27.1641 153.107 27.0794 153.406 26.9102C153.706 26.7344 153.95 26.4935 154.139 26.1875C154.334 25.8815 154.477 25.5267 154.568 25.123C154.66 24.7194 154.705 24.2865 154.705 23.8242V23.6191C154.705 23.1634 154.66 22.737 154.568 22.3398C154.477 21.9362 154.334 21.5814 154.139 21.2754C153.95 20.9629 153.702 20.7188 153.396 20.543C153.097 20.3607 152.736 20.2695 152.312 20.2695C151.896 20.2695 151.538 20.3607 151.238 20.543C150.939 20.7188 150.695 20.9629 150.506 21.2754C150.317 21.5814 150.177 21.9362 150.086 22.3398C149.995 22.737 149.949 23.1634 149.949 23.6191Z" fill="white"/>
<path d="M36.5417 18.875H31.375V11.625H23.625V18.875H18.4583L27.5 28.5417L36.5417 18.875ZM17.1667 30.9583H37.8333V33.375H17.1667V30.9583Z" fill="#4ECB71"/>
<defs>
<filter id="filter0_d_5_26" x="0" y="0" width="168" height="53" filterUnits="userSpaceOnUse" color-interpolation-filters="sRGB">
<feFlood flood-opacity="0" result="BackgroundImageFix"/>
<feColorMatrix in="SourceAlpha" type="matrix" values="0 0 0 0 0 0 0 0 0 0 0 0 0 0 0 0 0 0 127 0" result="hardAlpha"/>
<feOffset dy="4"/>
<feGaussianBlur stdDeviation="2"/>
<feComposite in2="hardAlpha" operator="out"/>
<feColorMatrix type="matrix" values="0 0 0 0 0 0 0 0 0 0 0 0 0 0 0 0 0 0 0.25 0"/>
<feBlend mode="normal" in2="BackgroundImageFix" result="effect1_dropShadow_5_26"/>
<feBlend mode="normal" in="SourceGraphic" in2="effect1_dropShadow_5_26" result="shape"/>
</filter>
</defs>
</svg>
