<svg width="168" height="53" viewBox="0 0 168 53" fill="none" xmlns="http://www.w3.org/2000/svg">
<g filter="url(#filter0_d_5_21)">
<rect x="4" width="160" height="45" rx="11" fill="#FFD363"/>
</g>
<path d="M57.7568 26.3281L60.7715 16.2031H63.707L59.251 29H57.3174L57.7568 26.3281ZM54.9795 16.2031L57.9854 26.3281L58.4424 29H56.4912L52.0615 16.2031H54.9795ZM68.7344 29.1758C67.9961 29.1758 67.334 29.0586 66.748 28.8242C66.1621 28.584 65.6641 28.2529 65.2539 27.8311C64.8496 27.4092 64.5391 26.9199 64.3223 26.3633C64.1055 25.8008 63.9971 25.2031 63.9971 24.5703V24.2188C63.9971 23.498 64.0996 22.8389 64.3047 22.2412C64.5098 21.6436 64.8027 21.125 65.1836 20.6855C65.5703 20.2461 66.0391 19.9092 66.5898 19.6748C67.1406 19.4346 67.7617 19.3145 68.4531 19.3145C69.127 19.3145 69.7246 19.4258 70.2461 19.6484C70.7676 19.8711 71.2041 20.1875 71.5557 20.5977C71.9131 21.0078 72.1826 21.5 72.3643 22.0742C72.5459 22.6426 72.6367 23.2754 72.6367 23.9727V25.0273H65.0781V23.3398H70.1494V23.1465C70.1494 22.7949 70.085 22.4814 69.9561 22.2061C69.833 21.9248 69.6455 21.7021 69.3936 21.5381C69.1416 21.374 68.8193 21.292 68.4268 21.292C68.0928 21.292 67.8057 21.3652 67.5654 21.5117C67.3252 21.6582 67.1289 21.8633 66.9766 22.127C66.8301 22.3906 66.7188 22.7012 66.6426 23.0586C66.5723 23.4102 66.5371 23.7969 66.5371 24.2188V24.5703C66.5371 24.9512 66.5898 25.3027 66.6953 25.625C66.8066 25.9473 66.9619 26.2256 67.1611 26.46C67.3662 26.6943 67.6123 26.876 67.8994 27.0049C68.1924 27.1338 68.5234 27.1982 68.8926 27.1982C69.3496 27.1982 69.7744 27.1104 70.167 26.9346C70.5654 26.7529 70.9082 26.4805 71.1953 26.1172L72.4258 27.4531C72.2266 27.7402 71.9541 28.0156 71.6084 28.2793C71.2686 28.543 70.8584 28.7598 70.3779 28.9297C69.8975 29.0938 69.3496 29.1758 68.7344 29.1758ZM76.6094 21.5645V29H74.0781V19.4902H76.46L76.6094 21.5645ZM79.4746 19.4287L79.4307 21.7754C79.3076 21.7578 79.1582 21.7432 78.9824 21.7314C78.8125 21.7139 78.6572 21.7051 78.5166 21.7051C78.1592 21.7051 77.8486 21.752 77.585 21.8457C77.3271 21.9336 77.1104 22.0654 76.9346 22.2412C76.7646 22.417 76.6357 22.6309 76.5479 22.8828C76.4658 23.1348 76.4189 23.4219 76.4072 23.7441L75.8975 23.5859C75.8975 22.9707 75.959 22.4053 76.082 21.8896C76.2051 21.3682 76.3838 20.9141 76.6182 20.5273C76.8584 20.1406 77.1514 19.8418 77.4971 19.6309C77.8428 19.4199 78.2383 19.3145 78.6836 19.3145C78.8242 19.3145 78.9678 19.3262 79.1143 19.3496C79.2607 19.3672 79.3809 19.3936 79.4746 19.4287ZM89.5293 29.1758C88.791 29.1758 88.1289 29.0586 87.543 28.8242C86.957 28.584 86.459 28.2529 86.0488 27.8311C85.6445 27.4092 85.334 26.9199 85.1172 26.3633C84.9004 25.8008 84.792 25.2031 84.792 24.5703V24.2188C84.792 23.498 84.8945 22.8389 85.0996 22.2412C85.3047 21.6436 85.5977 21.125 85.9785 20.6855C86.3652 20.2461 86.834 19.9092 87.3848 19.6748C87.9355 19.4346 88.5566 19.3145 89.248 19.3145C89.9219 19.3145 90.5195 19.4258 91.041 19.6484C91.5625 19.8711 91.999 20.1875 92.3506 20.5977C92.708 21.0078 92.9775 21.5 93.1592 22.0742C93.3408 22.6426 93.4316 23.2754 93.4316 23.9727V25.0273H85.873V23.3398H90.9443V23.1465C90.9443 22.7949 90.8799 22.4814 90.751 22.2061C90.6279 21.9248 90.4404 21.7021 90.1885 21.5381C89.9365 21.374 89.6143 21.292 89.2217 21.292C88.8877 21.292 88.6006 21.3652 88.3604 21.5117C88.1201 21.6582 87.9238 21.8633 87.7715 22.127C87.625 22.3906 87.5137 22.7012 87.4375 23.0586C87.3672 23.4102 87.332 23.7969 87.332 24.2188V24.5703C87.332 24.9512 87.3848 25.3027 87.4902 25.625C87.6016 25.9473 87.7568 26.2256 87.9561 26.46C88.1611 26.6943 88.4072 26.876 88.6943 27.0049C88.9873 27.1338 89.3184 27.1982 89.6875 27.1982C90.1445 27.1982 90.5693 27.1104 90.9619 26.9346C91.3604 26.7529 91.7031 26.4805 91.9902 26.1172L93.2207 27.4531C93.0215 27.7402 92.749 28.0156 92.4033 28.2793C92.0635 28.543 91.6533 28.7598 91.1729 28.9297C90.6924 29.0938 90.1445 29.1758 89.5293 29.1758ZM97.3516 21.5205V29H94.8203V19.4902H97.1934L97.3516 21.5205ZM96.9824 23.9111H96.2969C96.2969 23.208 96.3877 22.5752 96.5693 22.0127C96.751 21.4443 97.0059 20.9609 97.334 20.5625C97.6621 20.1582 98.0518 19.8506 98.5029 19.6396C98.96 19.4229 99.4697 19.3145 100.032 19.3145C100.478 19.3145 100.885 19.3789 101.254 19.5078C101.623 19.6367 101.939 19.8418 102.203 20.123C102.473 20.4043 102.678 20.7764 102.818 21.2393C102.965 21.7021 103.038 22.2676 103.038 22.9355V29H100.489V22.9268C100.489 22.5049 100.431 22.1768 100.313 21.9424C100.196 21.708 100.023 21.5439 99.7949 21.4502C99.5723 21.3506 99.2969 21.3008 98.9688 21.3008C98.6289 21.3008 98.333 21.3682 98.0811 21.5029C97.835 21.6377 97.6299 21.8252 97.4658 22.0654C97.3076 22.2998 97.1875 22.5752 97.1055 22.8916C97.0234 23.208 96.9824 23.5479 96.9824 23.9111ZM118.858 26.9434V29H109.788V26.9434H118.858ZM118.727 17.6709L110.957 29H109.103V27.4883L116.934 16.2031H118.727V17.6709ZM117.821 16.2031V18.2686H109.111V16.2031H117.821ZM124.562 29.1758C123.824 29.1758 123.162 29.0586 122.576 28.8242C121.99 28.584 121.492 28.2529 121.082 27.8311C120.678 27.4092 120.367 26.9199 120.15 26.3633C119.934 25.8008 119.825 25.2031 119.825 24.5703V24.2188C119.825 23.498 119.928 22.8389 120.133 22.2412C120.338 21.6436 120.631 21.125 121.012 20.6855C121.398 20.2461 121.867 19.9092 122.418 19.6748C122.969 19.4346 123.59 19.3145 124.281 19.3145C124.955 19.3145 125.553 19.4258 126.074 19.6484C126.596 19.8711 127.032 20.1875 127.384 20.5977C127.741 21.0078 128.011 21.5 128.192 22.0742C128.374 22.6426 128.465 23.2754 128.465 23.9727V25.0273H120.906V23.3398H125.978V23.1465C125.978 22.7949 125.913 22.4814 125.784 22.2061C125.661 21.9248 125.474 21.7021 125.222 21.5381C124.97 21.374 124.647 21.292 124.255 21.292C123.921 21.292 123.634 21.3652 123.394 21.5117C123.153 21.6582 122.957 21.8633 122.805 22.127C122.658 22.3906 122.547 22.7012 122.471 23.0586C122.4 23.4102 122.365 23.7969 122.365 24.2188V24.5703C122.365 24.9512 122.418 25.3027 122.523 25.625C122.635 25.9473 122.79 26.2256 122.989 26.46C123.194 26.6943 123.44 26.876 123.728 27.0049C124.021 27.1338 124.352 27.1982 124.721 27.1982C125.178 27.1982 125.603 27.1104 125.995 26.9346C126.394 26.7529 126.736 26.4805 127.023 26.1172L128.254 27.4531C128.055 27.7402 127.782 28.0156 127.437 28.2793C127.097 28.543 126.687 28.7598 126.206 28.9297C125.726 29.0938 125.178 29.1758 124.562 29.1758ZM132.438 21.3184V32.6562H129.906V19.4902H132.253L132.438 21.3184ZM138.458 24.1396V24.3242C138.458 25.0156 138.376 25.6572 138.212 26.249C138.054 26.8408 137.819 27.3564 137.509 27.7959C137.198 28.2295 136.812 28.5693 136.349 28.8154C135.892 29.0557 135.364 29.1758 134.767 29.1758C134.187 29.1758 133.683 29.0586 133.255 28.8242C132.827 28.5898 132.467 28.2617 132.174 27.8398C131.887 27.4121 131.655 26.917 131.479 26.3545C131.304 25.792 131.169 25.1885 131.075 24.5439V24.0605C131.169 23.3691 131.304 22.7363 131.479 22.1621C131.655 21.582 131.887 21.0811 132.174 20.6592C132.467 20.2314 132.824 19.9004 133.246 19.666C133.674 19.4316 134.175 19.3145 134.749 19.3145C135.353 19.3145 135.883 19.4287 136.34 19.6572C136.803 19.8857 137.189 20.2139 137.5 20.6416C137.816 21.0693 138.054 21.5791 138.212 22.1709C138.376 22.7627 138.458 23.4189 138.458 24.1396ZM135.918 24.3242V24.1396C135.918 23.7354 135.883 23.3633 135.812 23.0234C135.748 22.6777 135.643 22.376 135.496 22.1182C135.355 21.8604 135.168 21.6611 134.934 21.5205C134.705 21.374 134.427 21.3008 134.099 21.3008C133.753 21.3008 133.457 21.3564 133.211 21.4678C132.971 21.5791 132.774 21.7402 132.622 21.9512C132.47 22.1621 132.355 22.4141 132.279 22.707C132.203 23 132.156 23.3311 132.139 23.7002V24.9219C132.168 25.3555 132.25 25.7451 132.385 26.0908C132.52 26.4307 132.728 26.7002 133.009 26.8994C133.29 27.0986 133.659 27.1982 134.116 27.1982C134.45 27.1982 134.731 27.125 134.96 26.9785C135.188 26.8262 135.373 26.6182 135.514 26.3545C135.66 26.0908 135.763 25.7861 135.821 25.4404C135.886 25.0947 135.918 24.7227 135.918 24.3242ZM142.703 15.5V29H140.163V15.5H142.703ZM147.467 19.4902V29H144.927V19.4902H147.467ZM144.769 17.0117C144.769 16.6426 144.897 16.3379 145.155 16.0977C145.413 15.8574 145.759 15.7373 146.192 15.7373C146.62 15.7373 146.963 15.8574 147.221 16.0977C147.484 16.3379 147.616 16.6426 147.616 17.0117C147.616 17.3809 147.484 17.6855 147.221 17.9258C146.963 18.166 146.62 18.2861 146.192 18.2861C145.759 18.2861 145.413 18.166 145.155 17.9258C144.897 17.6855 144.769 17.3809 144.769 17.0117ZM152.037 21.5205V29H149.506V19.4902H151.879L152.037 21.5205ZM151.668 23.9111H150.982C150.982 23.208 151.073 22.5752 151.255 22.0127C151.437 21.4443 151.691 20.9609 152.02 20.5625C152.348 20.1582 152.737 19.8506 153.188 19.6396C153.646 19.4229 154.155 19.3145 154.718 19.3145C155.163 19.3145 155.57 19.3789 155.939 19.5078C156.309 19.6367 156.625 19.8418 156.889 20.123C157.158 20.4043 157.363 20.7764 157.504 21.2393C157.65 21.7021 157.724 22.2676 157.724 22.9355V29H155.175V22.9268C155.175 22.5049 155.116 22.1768 154.999 21.9424C154.882 21.708 154.709 21.5439 154.48 21.4502C154.258 21.3506 153.982 21.3008 153.654 21.3008C153.314 21.3008 153.019 21.3682 152.767 21.5029C152.521 21.6377 152.315 21.8252 152.151 22.0654C151.993 22.2998 151.873 22.5752 151.791 22.8916C151.709 23.208 151.668 23.5479 151.668 23.9111Z" fill="#FAFAFA"/>
<path d="M15.7029 29.0884L13.7674 29.9236L13.6633 36.7257L20.3638 33.8342C18.0657 32.9225 16.3874 31.318 15.7029 29.0884" fill="#FDBD39"/>
<path d="M16.7159 21.8939L10 24.7921L13.7674 29.9236L15.7029 29.0884C15.0204 26.8653 15.4413 24.3523 16.7159 21.8939" fill="#F69833"/>
<path d="M28.0176 12.0789C19.4655 15.7694 13.9521 23.3847 15.7029 29.0884L46.6726 15.7237C44.9218 10.02 36.5696 8.38818 28.0176 12.0785" fill="#FECF33"/>
<path d="M34.3581 32.7333C42.9101 29.0428 48.434 21.4611 46.6726 15.7238L15.7029 29.0884C17.4642 34.8256 25.8061 36.4237 34.3581 32.7333Z" fill="#EE6723"/>
<path d="M46.6726 15.7237L15.7029 29.0885C16.3094 31.0639 18.6219 32.0371 21.8667 32.0371C25.0301 32.0371 29.0796 31.1129 33.3013 29.291C41.8534 25.6005 47.8704 19.6252 46.6726 15.724" fill="#F69833"/>
<path d="M40.509 12.7751C37.3455 12.7751 33.296 13.6995 29.0742 15.5212C20.5223 19.2117 14.5053 25.187 15.7029 29.0884L46.6726 15.7237C46.0663 13.7483 43.7538 12.7751 40.5091 12.7751" fill="#FDBD39"/>
<path d="M38.7986 37.086H38.7983C37.8872 37.086 36.5429 36.1136 34.8029 34.1962C32.7442 31.9276 30.386 28.605 28.1628 24.8402C25.9395 21.0756 24.1126 17.312 23.0187 14.2426C21.8267 10.8974 21.6567 8.84062 22.5135 8.12935C22.7014 7.97347 22.9279 7.89459 23.1865 7.89459C23.8834 7.89459 25.2413 8.50752 27.7522 11.4275L27.8071 11.4914L27.7996 11.5821C27.7824 11.7916 27.7667 12.0013 27.7525 12.2112L27.7246 12.6237L27.4782 12.3305C24.7728 9.11088 23.5819 8.76328 23.1954 8.76328C23.0851 8.76328 22.9974 8.78974 22.9345 8.84198C22.5628 9.15049 22.539 10.6611 23.6945 13.9038C24.7689 16.9186 26.5692 20.6255 28.7638 24.3412C30.9585 28.0573 33.2804 31.3309 35.3024 33.559C37.4825 35.9613 38.465 36.2207 38.7861 36.2207C38.897 36.2207 38.9872 36.1927 39.054 36.137C39.4461 35.8118 39.4465 34.1934 38.1579 30.7032L38.0986 30.543L38.2283 30.4593C38.3578 30.3755 38.4831 30.2931 38.6004 30.2142L38.7556 30.11L38.827 30.3035C39.7408 32.7765 40.5949 35.9197 39.475 36.8498C39.2862 37.0064 39.0587 37.086 38.7986 37.086ZM38.7983 36.7044H38.7986L38.7984 36.8951V36.7044H38.7983Z" fill="#EE6723"/>
<path d="M34.5657 32.629L34.5527 32.819C34.3365 35.9793 33.7672 39.7787 32.2828 39.9324C32.253 39.9356 32.2221 39.9372 32.191 39.9372C31.1828 39.9372 30.2287 38.2305 29.3558 34.8647C28.5296 31.6804 27.8888 27.405 27.5509 22.8259C27.2129 18.2478 27.218 13.9052 27.565 10.5985C27.9436 6.995 28.6636 5.11302 29.7055 5.00512C29.7365 5.00171 29.7684 5 29.7999 5C30.5314 5 31.6339 5.97829 32.7624 10.5358L32.0256 10.7038C31.6488 9.18088 31.238 7.94222 30.8303 7.09112C30.4532 6.30388 30.0865 5.87039 29.7979 5.87039C29.7884 5.87039 29.7788 5.87073 29.7694 5.87159C29.3178 5.91854 28.66 7.21268 28.2932 10.7059C27.9524 13.9535 27.9482 18.2309 28.2816 22.7501C28.6153 27.2701 29.2458 31.4817 30.057 34.6091C30.4202 36.0097 30.8187 37.164 31.2094 37.9473C31.5696 38.6695 31.9182 39.0673 32.1907 39.0673C32.2003 39.0673 32.2095 39.0668 32.2189 39.0659C32.6511 39.0212 33.4655 37.6745 33.8082 32.936L34.5657 32.629" fill="#EE6723"/>
<defs>
<filter id="filter0_d_5_21" x="0" y="0" width="168" height="53" filterUnits="userSpaceOnUse" color-interpolation-filters="sRGB">
<feFlood flood-opacity="0" result="BackgroundImageFix"/>
<feColorMatrix in="SourceAlpha" type="matrix" values="0 0 0 0 0 0 0 0 0 0 0 0 0 0 0 0 0 0 127 0" result="hardAlpha"/>
<feOffset dy="4"/>
<feGaussianBlur stdDeviation="2"/>
<feComposite in2="hardAlpha" operator="out"/>
<feColorMatrix type="matrix" values="0 0 0 0 0 0 0 0 0 0 0 0 0 0 0 0 0 0 0.25 0"/>
<feBlend mode="normal" in2="BackgroundImageFix" result="effect1_dropShadow_5_21"/>
<feBlend mode="normal" in="SourceGraphic" in2="effect1_dropShadow_5_21" result="shape"/>
</filter>
</defs>
</svg>
