<svg width="168" height="53" viewBox="0 0 168 53" fill="none" xmlns="http://www.w3.org/2000/svg">
<g filter="url(#filter0_d_5_31)">
<rect x="4" width="160" height="45" rx="11" fill="#25496B"/>
</g>
<path d="M60.3574 26.2168L63.9023 14.7812H66.8809L61.8613 29H59.8789L60.3574 26.2168ZM57.0859 14.7812L60.6113 26.2168L61.1191 29H59.1172L54.1172 14.7812H57.0859ZM72.4668 29.1953C71.666 29.1953 70.9466 29.0651 70.3086 28.8047C69.6706 28.5443 69.127 28.1829 68.6777 27.7207C68.235 27.252 67.8932 26.7083 67.6523 26.0898C67.418 25.4648 67.3008 24.7943 67.3008 24.0781V23.6875C67.3008 22.8737 67.418 22.1348 67.6523 21.4707C67.8867 20.8001 68.2188 20.224 68.6484 19.7422C69.0781 19.2604 69.5924 18.8893 70.1914 18.6289C70.7904 18.3685 71.4512 18.2383 72.1738 18.2383C72.9225 18.2383 73.5833 18.3652 74.1562 18.6191C74.7292 18.8665 75.2077 19.2181 75.5918 19.6738C75.9759 20.1296 76.2656 20.6764 76.4609 21.3145C76.6562 21.946 76.7539 22.6458 76.7539 23.4141V24.498H68.4727V22.7207H74.2148V22.5254C74.2018 22.1152 74.1237 21.7409 73.9805 21.4023C73.8372 21.0573 73.6159 20.7839 73.3164 20.582C73.0169 20.3737 72.6296 20.2695 72.1543 20.2695C71.7702 20.2695 71.4349 20.3542 71.1484 20.5234C70.8685 20.6862 70.6341 20.9206 70.4453 21.2266C70.263 21.526 70.1263 21.8841 70.0352 22.3008C69.944 22.7174 69.8984 23.1797 69.8984 23.6875V24.0781C69.8984 24.5208 69.957 24.931 70.0742 25.3086C70.1979 25.6862 70.377 26.015 70.6113 26.2949C70.8522 26.5684 71.1387 26.7832 71.4707 26.9395C71.8092 27.0892 72.1934 27.1641 72.623 27.1641C73.1634 27.1641 73.6517 27.0599 74.0879 26.8516C74.5306 26.6367 74.9147 26.321 75.2402 25.9043L76.5391 27.252C76.3177 27.5775 76.0182 27.89 75.6406 28.1895C75.2695 28.4889 74.8203 28.7331 74.293 28.9219C73.7656 29.1042 73.1569 29.1953 72.4668 29.1953ZM81.0605 20.5918V29H78.4824V18.4336H80.9238L81.0605 20.5918ZM84.2734 18.3652L84.2344 20.7676C84.0911 20.7415 83.9284 20.722 83.7461 20.709C83.5703 20.696 83.4043 20.6895 83.248 20.6895C82.8509 20.6895 82.5026 20.7448 82.2031 20.8555C81.9036 20.9596 81.653 21.1126 81.4512 21.3145C81.2559 21.5163 81.1061 21.7637 81.002 22.0566C80.8978 22.3431 80.8392 22.6686 80.8262 23.0332L80.2695 22.9648C80.2695 22.2943 80.3379 21.6725 80.4746 21.0996C80.6113 20.5267 80.8099 20.0254 81.0703 19.5957C81.3307 19.166 81.6562 18.834 82.0469 18.5996C82.444 18.3587 82.8997 18.2383 83.4141 18.2383C83.5573 18.2383 83.7103 18.2513 83.873 18.2773C84.0423 18.2969 84.1758 18.3262 84.2734 18.3652ZM95.6699 18.4336V20.2891H89.6152V18.4336H95.6699ZM91.2363 15.8359H93.8242V25.9531C93.8242 26.2656 93.8665 26.5065 93.9512 26.6758C94.0358 26.8451 94.1628 26.959 94.332 27.0176C94.5013 27.0762 94.7031 27.1055 94.9375 27.1055C95.1068 27.1055 95.263 27.0957 95.4062 27.0762C95.5495 27.0566 95.6699 27.0371 95.7676 27.0176L95.7773 28.9512C95.5625 29.0228 95.3184 29.0814 95.0449 29.127C94.778 29.1725 94.4753 29.1953 94.1367 29.1953C93.5573 29.1953 93.0495 29.0977 92.6133 28.9023C92.1771 28.7005 91.8385 28.3783 91.5977 27.9355C91.3568 27.4863 91.2363 26.8939 91.2363 26.1582V15.8359ZM103.209 26.7539V21.8809C103.209 21.5228 103.147 21.2135 103.023 20.9531C102.9 20.6927 102.711 20.4909 102.457 20.3477C102.203 20.2044 101.881 20.1328 101.49 20.1328C101.145 20.1328 100.842 20.1914 100.582 20.3086C100.328 20.4258 100.133 20.5918 99.9961 20.8066C99.8594 21.015 99.791 21.2559 99.791 21.5293H97.2031C97.2031 21.0931 97.3073 20.6797 97.5156 20.2891C97.724 19.8919 98.0202 19.5404 98.4043 19.2344C98.7949 18.9219 99.2604 18.6777 99.8008 18.502C100.348 18.3262 100.96 18.2383 101.637 18.2383C102.438 18.2383 103.15 18.375 103.775 18.6484C104.407 18.9154 104.902 19.319 105.26 19.8594C105.624 20.3997 105.807 21.0801 105.807 21.9004V26.5098C105.807 27.0371 105.839 27.4896 105.904 27.8672C105.976 28.2383 106.08 28.5605 106.217 28.834V29H103.59C103.466 28.7331 103.372 28.3945 103.307 27.9844C103.242 27.5677 103.209 27.1576 103.209 26.7539ZM103.57 22.5645L103.59 24.0977H101.959C101.555 24.0977 101.201 24.14 100.895 24.2246C100.589 24.3027 100.338 24.4199 100.143 24.5762C99.9473 24.7259 99.8008 24.9082 99.7031 25.123C99.6055 25.3314 99.5566 25.569 99.5566 25.8359C99.5566 26.0964 99.6152 26.3307 99.7324 26.5391C99.8561 26.7474 100.032 26.9134 100.26 27.0371C100.494 27.1543 100.768 27.2129 101.08 27.2129C101.536 27.2129 101.933 27.1217 102.271 26.9395C102.61 26.7507 102.874 26.5228 103.062 26.2559C103.251 25.9889 103.352 25.735 103.365 25.4941L104.107 26.6074C104.016 26.8743 103.88 27.1576 103.697 27.457C103.515 27.7565 103.281 28.0365 102.994 28.2969C102.708 28.5573 102.363 28.7721 101.959 28.9414C101.555 29.1107 101.087 29.1953 100.553 29.1953C99.8691 29.1953 99.2572 29.0586 98.7168 28.7852C98.1764 28.5117 97.75 28.1374 97.4375 27.6621C97.125 27.1868 96.9688 26.6465 96.9688 26.041C96.9688 25.4811 97.0729 24.9863 97.2812 24.5566C97.4896 24.127 97.7988 23.7656 98.209 23.4727C98.6191 23.1732 99.127 22.9486 99.7324 22.7988C100.344 22.6426 101.044 22.5645 101.832 22.5645H103.57ZM113.941 26.1094C113.941 25.888 113.883 25.6895 113.766 25.5137C113.648 25.3379 113.427 25.1784 113.102 25.0352C112.783 24.8854 112.314 24.7454 111.695 24.6152C111.148 24.498 110.644 24.3516 110.182 24.1758C109.719 24 109.322 23.7884 108.99 23.541C108.658 23.2871 108.398 22.9909 108.209 22.6523C108.027 22.3073 107.936 21.9102 107.936 21.4609C107.936 21.0247 108.03 20.6146 108.219 20.2305C108.408 19.8398 108.681 19.498 109.039 19.2051C109.397 18.9056 109.833 18.6712 110.348 18.502C110.862 18.3262 111.441 18.2383 112.086 18.2383C112.984 18.2383 113.756 18.3848 114.4 18.6777C115.051 18.9707 115.549 19.3743 115.895 19.8887C116.24 20.3965 116.412 20.9694 116.412 21.6074H113.834C113.834 21.3275 113.769 21.0736 113.639 20.8457C113.515 20.6178 113.323 20.4355 113.062 20.2988C112.802 20.1556 112.473 20.084 112.076 20.084C111.718 20.084 111.415 20.1426 111.168 20.2598C110.927 20.377 110.745 20.5299 110.621 20.7188C110.497 20.9076 110.436 21.1159 110.436 21.3438C110.436 21.513 110.468 21.666 110.533 21.8027C110.605 21.9329 110.719 22.0534 110.875 22.1641C111.031 22.2747 111.243 22.3757 111.51 22.4668C111.783 22.5579 112.118 22.6458 112.516 22.7305C113.303 22.8867 113.99 23.0951 114.576 23.3555C115.169 23.6094 115.631 23.9479 115.963 24.3711C116.295 24.7943 116.461 25.3346 116.461 25.9922C116.461 26.4609 116.36 26.8906 116.158 27.2812C115.956 27.6654 115.663 28.0007 115.279 28.2871C114.895 28.5736 114.436 28.7982 113.902 28.9609C113.368 29.1172 112.766 29.1953 112.096 29.1953C111.126 29.1953 110.305 29.0228 109.635 28.6777C108.964 28.3262 108.456 27.8835 108.111 27.3496C107.766 26.8092 107.594 26.2493 107.594 25.6699H110.064C110.084 26.0801 110.195 26.4089 110.396 26.6562C110.598 26.9036 110.852 27.0827 111.158 27.1934C111.471 27.2975 111.799 27.3496 112.145 27.3496C112.535 27.3496 112.864 27.2975 113.131 27.1934C113.398 27.0827 113.6 26.9362 113.736 26.7539C113.873 26.5651 113.941 26.3503 113.941 26.1094ZM121.002 13.9902V29H118.424V13.9902H121.002ZM127.623 18.4336L123.023 23.5996L120.533 26.1289L119.713 24.127L121.637 21.7051L124.508 18.4336H127.623ZM124.986 29L121.715 24.0781L123.434 22.4082L127.975 29H124.986Z" fill="white"/>
<path d="M41.048 12.0963L28.2532 16.1797V12.1453L14.455 16.5483V28.2442L26.355 24.4432V28.4577L42 23.4702L37.7603 19.3285L41.048 12.0963ZM26.3573 14.7505V22.4412L16.3625 25.6297V17.939L26.3573 14.7505ZM37.6542 15.1787L35.4958 19.7287L38.4615 22.6068L28.2532 25.863V18.1828L37.6542 15.1787ZM16.0312 29.8402C14.9135 29.8402 14 30.7537 14 31.8713C14 32.9902 14.9135 33.9037 16.0312 33.9037C16.57 33.9037 17.0868 33.6896 17.4678 33.3086C17.8489 32.9276 18.0629 32.4108 18.0629 31.8719C18.0629 31.3331 17.8489 30.8163 17.4678 30.4353C17.0868 30.0542 16.57 29.8402 16.0312 29.8402V29.8402Z" fill="#64BEFF"/>
<defs>
<filter id="filter0_d_5_31" x="0" y="0" width="168" height="53" filterUnits="userSpaceOnUse" color-interpolation-filters="sRGB">
<feFlood flood-opacity="0" result="BackgroundImageFix"/>
<feColorMatrix in="SourceAlpha" type="matrix" values="0 0 0 0 0 0 0 0 0 0 0 0 0 0 0 0 0 0 127 0" result="hardAlpha"/>
<feOffset dy="4"/>
<feGaussianBlur stdDeviation="2"/>
<feComposite in2="hardAlpha" operator="out"/>
<feColorMatrix type="matrix" values="0 0 0 0 0 0 0 0 0 0 0 0 0 0 0 0 0 0 0.25 0"/>
<feBlend mode="normal" in2="BackgroundImageFix" result="effect1_dropShadow_5_31"/>
<feBlend mode="normal" in="SourceGraphic" in2="effect1_dropShadow_5_31" result="shape"/>
</filter>
</defs>
</svg>
